<svg id="SvgjsSvg1006" width="384" height="378" xmlns="http://www.w3.org/2000/svg" version="1.1" xmlns:xlink="http://www.w3.org/1999/xlink" xmlns:svgjs="http://svgjs.com/svgjs"><defs id="SvgjsDefs1007"><marker id="SvgjsMarker1038" markerWidth="14" markerHeight="10" refX="10" refY="5" viewBox="0 0 14 10" orient="auto" markerUnits="userSpaceOnUse" stroke-dasharray="0,0"><path id="SvgjsPath1039" d="M0,0 L14,5 L0,10 L0,0" fill="#323232" stroke="#323232" stroke-width="1"></path></marker><marker id="SvgjsMarker1042" markerWidth="14" markerHeight="10" refX="10" refY="5" viewBox="0 0 14 10" orient="auto" markerUnits="userSpaceOnUse" stroke-dasharray="0,0"><path id="SvgjsPath1043" d="M0,0 L14,5 L0,10 L0,0" fill="#323232" stroke="#323232" stroke-width="1"></path></marker><marker id="SvgjsMarker1046" markerWidth="14" markerHeight="10" refX="10" refY="5" viewBox="0 0 14 10" orient="auto" markerUnits="userSpaceOnUse" stroke-dasharray="0,0"><path id="SvgjsPath1047" d="M0,0 L14,5 L0,10 L0,0" fill="#323232" stroke="#323232" stroke-width="1"></path></marker></defs><g id="SvgjsG1008" transform="translate(47,25)"><path id="SvgjsPath1009" d="M 0 4Q 0 0 4 0L 87 0Q 91 0 91 4L 91 28Q 91 32 87 32L 4 32Q 0 32 0 28Z" stroke="rgba(50,50,50,1)" stroke-width="2" fill-opacity="1" fill="#ffffff"></path><g id="SvgjsG1010"><text id="SvgjsText1011" font-family="微软雅黑" text-anchor="middle" font-size="13px" width="71px" fill="#323232" font-weight="400" align="middle" lineHeight="125%" anchor="middle" family="微软雅黑" size="13px" weight="400" font-style="" opacity="1" y="6.375" transform="rotate(0)"><tspan id="SvgjsTspan1012" dy="16" x="45.5"><tspan id="SvgjsTspan1013" style="text-decoration:;">写内存</tspan></tspan></text></g></g><g id="SvgjsG1014" transform="translate(33,110.68182373046875)"><path id="SvgjsPath1015" d="M 0 4Q 0 0 4 0L 115 0Q 119 0 119 4L 119 37Q 119 41 115 41L 4 41Q 0 41 0 37Z" stroke="rgba(50,50,50,1)" stroke-width="2" fill-opacity="1" fill="#ffffff"></path><g id="SvgjsG1016"><text id="SvgjsText1017" font-family="微软雅黑" text-anchor="middle" font-size="13px" width="99px" fill="#323232" font-weight="400" align="middle" lineHeight="125%" anchor="middle" family="微软雅黑" size="13px" weight="400" font-style="" opacity="1" y="2.875" transform="rotate(0)"><tspan id="SvgjsTspan1018" dy="16" x="59.5"><tspan id="SvgjsTspan1019" style="text-decoration:;">写redo log，标识</tspan></tspan><tspan id="SvgjsTspan1020" dy="16" x="59.5"><tspan id="SvgjsTspan1021" style="text-decoration:;">为prepare</tspan></tspan></text></g></g><g id="SvgjsG1022" transform="translate(47,213)"><path id="SvgjsPath1023" d="M 0 4Q 0 0 4 0L 87 0Q 91 0 91 4L 91 28Q 91 32 87 32L 4 32Q 0 32 0 28Z" stroke="rgba(50,50,50,1)" stroke-width="2" fill-opacity="1" fill="#ffffff"></path><g id="SvgjsG1024"><text id="SvgjsText1025" font-family="微软雅黑" text-anchor="middle" font-size="13px" width="71px" fill="#323232" font-weight="400" align="middle" lineHeight="125%" anchor="middle" family="微软雅黑" size="13px" weight="400" font-style="" opacity="1" y="6.375" transform="rotate(0)"><tspan id="SvgjsTspan1026" dy="16" x="45.5"><tspan id="SvgjsTspan1027" style="text-decoration:;">写binlog</tspan></tspan></text></g></g><g id="SvgjsG1028" transform="translate(25,299)"><path id="SvgjsPath1029" d="M 0 4Q 0 0 4 0L 131 0Q 135 0 135 4L 135 50Q 135 54 131 54L 4 54Q 0 54 0 50Z" stroke="rgba(50,50,50,1)" stroke-width="2" fill-opacity="1" fill="#ffffff"></path><g id="SvgjsG1030"><text id="SvgjsText1031" font-family="微软雅黑" text-anchor="middle" font-size="13px" width="115px" fill="#323232" font-weight="400" align="middle" lineHeight="125%" anchor="middle" family="微软雅黑" size="13px" weight="400" font-style="" opacity="1" y="9.375" transform="rotate(0)"><tspan id="SvgjsTspan1032" dy="16" x="67.5"><tspan id="SvgjsTspan1033" style="text-decoration:;">写redo log，标识为</tspan></tspan><tspan id="SvgjsTspan1034" dy="16" x="67.5"><tspan id="SvgjsTspan1035" style="text-decoration:;">commit，事务提交</tspan></tspan></text></g></g><g id="SvgjsG1036"><path id="SvgjsPath1037" d="M92.5 58L92.5 81.5L92.5 81.5L92.5 107.08182373046876" stroke="#323232" stroke-width="2" fill="none" marker-end="url(#SvgjsMarker1038)"></path></g><g id="SvgjsG1040"><path id="SvgjsPath1041" d="M92.5 152.68182373046875L92.5 180.5L92.5 180.5L92.5 209.39999999999998" stroke="#323232" stroke-width="2" fill="none" marker-end="url(#SvgjsMarker1042)"></path></g><g id="SvgjsG1044"><path id="SvgjsPath1045" d="M92.5 246L92.5 272L92.5 272L92.5 295.4" stroke="#323232" stroke-width="2" fill="none" marker-end="url(#SvgjsMarker1046)"></path></g><g id="SvgjsG1048" transform="translate(240,110.68182373046875)"><path id="SvgjsPath1049" d="M 0 0L 119 0L 119 41L 0 41Z" stroke="none" fill="none"></path><g id="SvgjsG1050"><text id="SvgjsText1051" font-family="微软雅黑" text-anchor="middle" font-size="13px" width="119px" fill="#323232" font-weight="400" align="middle" lineHeight="125%" anchor="middle" family="微软雅黑" size="13px" weight="400" font-style="" opacity="1" y="10.875" transform="rotate(0)"><tspan id="SvgjsTspan1052" dy="16" x="59.5"><tspan id="SvgjsTspan1053" style="text-decoration:;">第一阶段</tspan></tspan></text></g></g><g id="SvgjsG1054" transform="translate(191.31817626953125,226)"><path id="SvgjsPath1055" d="M 0 94Q 4.800000000000001 94 4.800000000000001 85L 4.800000000000001 56Q 4.800000000000001 47 22 47Q 4.800000000000001 47 4.800000000000001 38L 4.800000000000001 9Q 4.800000000000001 0 0 0" stroke="rgba(50,50,50,1)" stroke-width="2" fill="none"></path><path id="SvgjsPath1056" d="M 0 0L 48 0L 48 94L 0 94Z" stroke="none" fill="none"></path><g id="SvgjsG1057"><text id="SvgjsText1058" font-family="微软雅黑" text-anchor="start" font-size="13px" width="21px" fill="#323232" font-weight="400" align="middle" lineHeight="125%" anchor="start" family="微软雅黑" size="13px" weight="400" font-style="" opacity="1" y="37.375" transform="rotate(0)"></text></g></g><g id="SvgjsG1059" transform="translate(240,245)"><path id="SvgjsPath1060" d="M 0 0L 119 0L 119 41L 0 41Z" stroke="none" fill="none"></path><g id="SvgjsG1061"><text id="SvgjsText1062" font-family="微软雅黑" text-anchor="middle" font-size="13px" width="119px" fill="#323232" font-weight="400" align="middle" lineHeight="125%" anchor="middle" family="微软雅黑" size="13px" weight="400" font-style="" opacity="1" y="10.875" transform="rotate(0)"><tspan id="SvgjsTspan1063" dy="16" x="59.5"><tspan id="SvgjsTspan1064" style="text-decoration:;">第二阶段</tspan></tspan></text></g></g></svg>