<svg id="SvgjsSvg1126" width="527.6818542480469" height="679.3636627197266" xmlns="http://www.w3.org/2000/svg" version="1.1" xmlns:xlink="http://www.w3.org/1999/xlink" xmlns:svgjs="http://svgjs.com/svgjs"><defs id="SvgjsDefs1127"><marker id="SvgjsMarker1180" markerWidth="14" markerHeight="10" refX="10" refY="5" viewBox="0 0 14 10" orient="auto" markerUnits="userSpaceOnUse" stroke-dasharray="0,0"><path id="SvgjsPath1181" d="M0,0 L14,5 L0,10 L0,0" fill="#323232" stroke="#323232" stroke-width="1"></path></marker><marker id="SvgjsMarker1184" markerWidth="14" markerHeight="10" refX="10" refY="5" viewBox="0 0 14 10" orient="auto" markerUnits="userSpaceOnUse" stroke-dasharray="0,0"><path id="SvgjsPath1185" d="M0,0 L14,5 L0,10 L0,0" fill="#323232" stroke="#323232" stroke-width="1"></path></marker><marker id="SvgjsMarker1188" markerWidth="14" markerHeight="10" refX="10" refY="5" viewBox="0 0 14 10" orient="auto" markerUnits="userSpaceOnUse" stroke-dasharray="0,0"><path id="SvgjsPath1189" d="M0,0 L14,5 L0,10 L0,0" fill="#323232" stroke="#323232" stroke-width="1"></path></marker><marker id="SvgjsMarker1192" markerWidth="14" markerHeight="10" refX="10" refY="5" viewBox="0 0 14 10" orient="auto" markerUnits="userSpaceOnUse" stroke-dasharray="0,0"><path id="SvgjsPath1193" d="M0,0 L14,5 L0,10 L0,0" fill="#323232" stroke="#323232" stroke-width="1"></path></marker><marker id="SvgjsMarker1196" markerWidth="14" markerHeight="10" refX="10" refY="5" viewBox="0 0 14 10" orient="auto" markerUnits="userSpaceOnUse" stroke-dasharray="0,0"><path id="SvgjsPath1197" d="M0,0 L14,5 L0,10 L0,0" fill="#323232" stroke="#323232" stroke-width="1"></path></marker><marker id="SvgjsMarker1218" markerWidth="14" markerHeight="10" refX="10" refY="5" viewBox="0 0 14 10" orient="auto" markerUnits="userSpaceOnUse" stroke-dasharray="0,0"><path id="SvgjsPath1219" d="M0,0 L14,5 L0,10 L0,0" fill="#323232" stroke="#323232" stroke-width="1"></path></marker><marker id="SvgjsMarker1222" markerWidth="14" markerHeight="10" refX="10" refY="5" viewBox="0 0 14 10" orient="auto" markerUnits="userSpaceOnUse" stroke-dasharray="0,0"><path id="SvgjsPath1223" d="M0,0 L14,5 L0,10 L0,0" fill="#323232" stroke="#323232" stroke-width="1"></path></marker><marker id="SvgjsMarker1236" markerWidth="14" markerHeight="10" refX="10" refY="5" viewBox="0 0 14 10" orient="auto" markerUnits="userSpaceOnUse" stroke-dasharray="0,0"><path id="SvgjsPath1237" d="M0,0 L14,5 L0,10 L0,0" fill="#323232" stroke="#323232" stroke-width="1"></path></marker><marker id="SvgjsMarker1240" markerWidth="14" markerHeight="10" refX="10" refY="5" viewBox="0 0 14 10" orient="auto" markerUnits="userSpaceOnUse" stroke-dasharray="0,0"><path id="SvgjsPath1241" d="M0,0 L14,5 L0,10 L0,0" fill="#323232" stroke="#323232" stroke-width="1"></path></marker><marker id="SvgjsMarker1244" markerWidth="14" markerHeight="10" refX="10" refY="5" viewBox="0 0 14 10" orient="auto" markerUnits="userSpaceOnUse" stroke-dasharray="0,0"><path id="SvgjsPath1245" d="M0,0 L14,5 L0,10 L0,0" fill="#323232" stroke="#323232" stroke-width="1"></path></marker></defs><g id="SvgjsG1128" transform="translate(25,167.7272720336914)"><path id="SvgjsPath1129" d="M 0 4Q 0 0 4 0L 437 0Q 441 0 441 4L 441 361Q 441 365 437 365L 4 365Q 0 365 0 361Z" stroke-dasharray="10,6,3,6" stroke="rgba(50,50,50,1)" stroke-width="2" fill-opacity="1" fill="#ffffff"></path><g id="SvgjsG1130"><text id="SvgjsText1131" font-family="微软雅黑" text-anchor="end" font-size="19px" width="431px" fill="#323232" font-weight="400" align="middle" lineHeight="125%" anchor="end" family="微软雅黑" size="19px" weight="400" font-style="" opacity="1" y="13.19642857142857" transform="rotate(0)"><tspan id="SvgjsTspan1132" dy="23" x="436"><tspan id="SvgjsTspan1133" style="text-decoration:;font-weight: bold;">Server层</tspan></tspan></text></g></g><g id="SvgjsG1134" transform="translate(25,577.363639831543)"><path id="SvgjsPath1135" d="M 0 4Q 0 0 4 0L 437 0Q 441 0 441 4L 441 74Q 441 78 437 78L 4 78Q 0 78 0 74Z" stroke-dasharray="10,6,3,6" stroke="rgba(50,50,50,1)" stroke-width="2" fill-opacity="1" fill="#ffffff"></path><g id="SvgjsG1136"><text id="SvgjsText1137" font-family="微软雅黑" text-anchor="end" font-size="19px" width="431px" fill="#323232" font-weight="700" align="middle" lineHeight="125%" anchor="end" family="微软雅黑" size="19px" weight="700" font-style="" opacity="1" y="-19.30357142857143" transform="rotate(0)"><tspan id="SvgjsTspan1138" dy="23" x="436"><tspan id="SvgjsTspan1139" style="text-decoration:;"> </tspan></tspan><tspan id="SvgjsTspan1140" dy="23" x="436"><tspan id="SvgjsTspan1141" style="text-decoration:;">存储引擎</tspan></tspan></text></g></g><g id="SvgjsG1142" transform="translate(195.5,63.090904235839844)"><path id="SvgjsPath1143" d="M 16.666666666666668 0L 83.33333333333333 0C 105.55555555555556 0 105.55555555555556 50 83.33333333333333 50L 16.666666666666668 50C -5.555555555555556 50 -5.555555555555556 0 16.666666666666668 0Z" stroke="rgba(50,50,50,1)" stroke-width="2" fill-opacity="1" fill="#ffffff"></path><g id="SvgjsG1144"><text id="SvgjsText1145" font-family="微软雅黑" text-anchor="middle" font-size="13px" width="80px" fill="#323232" font-weight="700" align="middle" lineHeight="125%" anchor="middle" family="微软雅黑" size="13px" weight="700" font-style="" opacity="1" y="15.375" transform="rotate(0)"><tspan id="SvgjsTspan1146" dy="16" x="50"><tspan id="SvgjsTspan1147" style="text-decoration:;">客户端</tspan></tspan></text></g></g><g id="SvgjsG1148" transform="translate(203.68182373046875,185.09090423583984)"><path id="SvgjsPath1149" d="M 16.666666666666668 0L 83.33333333333333 0C 105.55555555555556 0 105.55555555555556 50 83.33333333333333 50L 16.666666666666668 50C -5.555555555555556 50 -5.555555555555556 0 16.666666666666668 0Z" stroke="rgba(50,50,50,1)" stroke-width="2" fill-opacity="1" fill="#ffffff"></path><g id="SvgjsG1150"><text id="SvgjsText1151" font-family="微软雅黑" text-anchor="middle" font-size="13px" width="80px" fill="#323232" font-weight="700" align="middle" lineHeight="125%" anchor="middle" family="微软雅黑" size="13px" weight="700" font-style="" opacity="1" y="15.375" transform="rotate(0)"><tspan id="SvgjsTspan1152" dy="16" x="50"><tspan id="SvgjsTspan1153" style="text-decoration:;">连接器</tspan></tspan></text></g></g><g id="SvgjsG1154" transform="translate(256.68182373046875,273.2727279663086)"><path id="SvgjsPath1155" d="M 16.666666666666668 0L 83.33333333333333 0C 105.55555555555556 0 105.55555555555556 50 83.33333333333333 50L 16.666666666666668 50C -5.555555555555556 50 -5.555555555555556 0 16.666666666666668 0Z" stroke="rgba(50,50,50,1)" stroke-width="2" fill-opacity="1" fill="#ffffff"></path><g id="SvgjsG1156"><text id="SvgjsText1157" font-family="微软雅黑" text-anchor="middle" font-size="13px" width="80px" fill="#323232" font-weight="700" align="middle" lineHeight="125%" anchor="middle" family="微软雅黑" size="13px" weight="700" font-style="" opacity="1" y="15.375" transform="rotate(0)"><tspan id="SvgjsTspan1158" dy="16" x="50"><tspan id="SvgjsTspan1159" style="text-decoration:;">分析器</tspan></tspan></text></g></g><g id="SvgjsG1160" transform="translate(256.68182373046875,361.45455169677734)"><path id="SvgjsPath1161" d="M 16.666666666666668 0L 83.33333333333333 0C 105.55555555555556 0 105.55555555555556 50 83.33333333333333 50L 16.666666666666668 50C -5.555555555555556 50 -5.555555555555556 0 16.666666666666668 0Z" stroke="rgba(50,50,50,1)" stroke-width="2" fill-opacity="1" fill="#ffffff"></path><g id="SvgjsG1162"><text id="SvgjsText1163" font-family="微软雅黑" text-anchor="middle" font-size="13px" width="80px" fill="#323232" font-weight="700" align="middle" lineHeight="125%" anchor="middle" family="微软雅黑" size="13px" weight="700" font-style="" opacity="1" y="15.375" transform="rotate(0)"><tspan id="SvgjsTspan1164" dy="16" x="50"><tspan id="SvgjsTspan1165" style="text-decoration:;">优化器</tspan></tspan></text></g></g><g id="SvgjsG1166" transform="translate(256.68182373046875,459.09090423583984)"><path id="SvgjsPath1167" d="M 16.666666666666668 0L 83.33333333333333 0C 105.55555555555556 0 105.55555555555556 50 83.33333333333333 50L 16.666666666666668 50C -5.555555555555556 50 -5.555555555555556 0 16.666666666666668 0Z" stroke="rgba(50,50,50,1)" stroke-width="2" fill-opacity="1" fill="#ffffff"></path><g id="SvgjsG1168"><text id="SvgjsText1169" font-family="微软雅黑" text-anchor="middle" font-size="13px" width="80px" fill="#323232" font-weight="700" align="middle" lineHeight="125%" anchor="middle" family="微软雅黑" size="13px" weight="700" font-style="" opacity="1" y="15.375" transform="rotate(0)"><tspan id="SvgjsTspan1170" dy="16" x="50"><tspan id="SvgjsTspan1171" style="text-decoration:;">执行器</tspan></tspan></text></g></g><g id="SvgjsG1172" transform="translate(132.5,273.2727279663086)"><path id="SvgjsPath1173" d="M 16.666666666666668 0L 83.33333333333333 0C 105.55555555555556 0 105.55555555555556 50 83.33333333333333 50L 16.666666666666668 50C -5.555555555555556 50 -5.555555555555556 0 16.666666666666668 0Z" stroke="rgba(50,50,50,1)" stroke-width="2" fill-opacity="1" fill="#ffffff"></path><g id="SvgjsG1174"><text id="SvgjsText1175" font-family="微软雅黑" text-anchor="middle" font-size="13px" width="80px" fill="#323232" font-weight="700" align="middle" lineHeight="125%" anchor="middle" family="微软雅黑" size="13px" weight="700" font-style="" opacity="1" y="15.375" transform="rotate(0)"><tspan id="SvgjsTspan1176" dy="16" x="50"><tspan id="SvgjsTspan1177" style="text-decoration:;">查询缓存</tspan></tspan></text></g></g><g id="SvgjsG1178"><path id="SvgjsPath1179" d="M245.5 114.09090423583984L245.5 164.1272720336914" stroke="#323232" stroke-width="2" fill="none" marker-end="url(#SvgjsMarker1180)"></path></g><g id="SvgjsG1182"><path id="SvgjsPath1183" d="M254.49319961789274 235.67542897381674L303.76087053574247 271.1684389095918" stroke="#323232" stroke-width="2" fill="none" marker-end="url(#SvgjsMarker1184)"></path></g><g id="SvgjsG1186"><path id="SvgjsPath1187" d="M306.68182373046875 324.2727279663086L306.68182373046875 357.8545516967773" stroke="#323232" stroke-width="2" fill="none" marker-end="url(#SvgjsMarker1188)"></path></g><g id="SvgjsG1190"><path id="SvgjsPath1191" d="M306.68182373046875 412.45455169677734L306.68182373046875 455.4909042358398" stroke="#323232" stroke-width="2" fill="none" marker-end="url(#SvgjsMarker1192)"></path></g><g id="SvgjsG1194"><path id="SvgjsPath1195" d="M252.8005948661705 235.5635940799529L185.6724239114737 271.57104452750167" stroke="#323232" stroke-width="2" fill="none" marker-end="url(#SvgjsMarker1196)"></path></g><g id="SvgjsG1198" transform="translate(67.5,612.2727279663086)"><path id="SvgjsPath1199" d="M 10.2 0L 63.666666666666664 0C 69.18181818181819 0 69.18181818181819 26 63.666666666666664 26L 10.2 26C -3.4000000000000004 26 -3.4000000000000004 0 10.2 0ZM 63.666666666666664 0C 58.25 0 58.25 26 63.666666666666664 26C 58.25 26 58.25 0 63.666666666666664 0" stroke="rgba(50,50,50,1)" stroke-width="2" fill-opacity="1" fill="#ffffff"></path><g id="SvgjsG1200"><text id="SvgjsText1201" font-family="微软雅黑" text-anchor="middle" font-size="13px" width="55px" fill="#323232" font-weight="700" align="middle" lineHeight="125%" anchor="middle" family="微软雅黑" size="13px" weight="700" font-style="" opacity="1" y="3.375" transform="rotate(0)"><tspan id="SvgjsTspan1202" dy="16" x="27.5"><tspan id="SvgjsTspan1203" style="text-decoration:;">Innodb</tspan></tspan></text></g></g><g id="SvgjsG1204" transform="translate(212.25,612.2727279663086)"><path id="SvgjsPath1205" d="M 10.2 0L 63.666666666666664 0C 69.18181818181819 0 69.18181818181819 26 63.666666666666664 26L 10.2 26C -3.4000000000000004 26 -3.4000000000000004 0 10.2 0ZM 63.666666666666664 0C 58.25 0 58.25 26 63.666666666666664 26C 58.25 26 58.25 0 63.666666666666664 0" stroke="rgba(50,50,50,1)" stroke-width="2" fill-opacity="1" fill="#ffffff"></path><g id="SvgjsG1206"><text id="SvgjsText1207" font-family="微软雅黑" text-anchor="middle" font-size="13px" width="55px" fill="#323232" font-weight="700" align="middle" lineHeight="125%" anchor="middle" family="微软雅黑" size="13px" weight="700" font-style="" opacity="1" y="3.375" transform="rotate(0)"><tspan id="SvgjsTspan1208" dy="16" x="27.5"><tspan id="SvgjsTspan1209" style="text-decoration:;">MyIASM</tspan></tspan></text></g></g><g id="SvgjsG1210" transform="translate(339.13636779785156,612.2727279663086)"><path id="SvgjsPath1211" d="M 10.2 0L 63.666666666666664 0C 69.18181818181819 0 69.18181818181819 26 63.666666666666664 26L 10.2 26C -3.4000000000000004 26 -3.4000000000000004 0 10.2 0ZM 63.666666666666664 0C 58.25 0 58.25 26 63.666666666666664 26C 58.25 26 58.25 0 63.666666666666664 0" stroke="rgba(50,50,50,1)" stroke-width="2" fill-opacity="1" fill="#ffffff"></path><g id="SvgjsG1212"><text id="SvgjsText1213" font-family="微软雅黑" text-anchor="middle" font-size="13px" width="55px" fill="#323232" font-weight="700" align="middle" lineHeight="125%" anchor="middle" family="微软雅黑" size="13px" weight="700" font-style="" opacity="1" y="3.375" transform="rotate(0)"><tspan id="SvgjsTspan1214" dy="16" x="27.5"><tspan id="SvgjsTspan1215" style="text-decoration:;">Memory</tspan></tspan></text></g></g><g id="SvgjsG1216"><path id="SvgjsPath1217" d="M405.13636779785156 533.7272720336914L405.13636779785156 577.363639831543" stroke="#323232" stroke-width="2" fill="none" marker-end="url(#SvgjsMarker1218)"></path></g><g id="SvgjsG1220"><path id="SvgjsPath1221" d="M224.13636779785156 111.7272720336914L224.13636779785156 164.1272720336914" stroke="#323232" stroke-width="2" fill="none" marker-end="url(#SvgjsMarker1222)"></path></g><g id="SvgjsG1224" transform="translate(303.68182373046875,25)"><path id="SvgjsPath1225" d="M 0 35C 0 -11.666666666666666 198.90908813476562 -11.666666666666666 198.90908813476562 35Q 194.9309063720703 68.6 99.45454406738281 70Q 66.3030293782552 70 33.1515146891276 63L 0 70L 23.27236331176758 59.99Q 0 49 0 35" stroke-dasharray="3,4" stroke="rgba(50,50,50,1)" stroke-width="2" fill-opacity="1" fill="#ffffff"></path><g id="SvgjsG1226"><text id="SvgjsText1227" font-family="微软雅黑" text-anchor="middle" font-size="13px" width="179px" fill="#323232" font-weight="400" align="middle" lineHeight="125%" anchor="middle" family="微软雅黑" size="13px" weight="400" font-style="" opacity="1" y="9.375" transform="rotate(0)"><tspan id="SvgjsTspan1228" dy="16" x="99.5"><tspan id="SvgjsTspan1229" style="text-decoration:;">      1.命令行工具如mysql</tspan></tspan><tspan id="SvgjsTspan1230" dy="16" x="99.5"><tspan id="SvgjsTspan1231" style="text-decoration:;">      2.各种驱动，调用mysql提供</tspan></tspan><tspan id="SvgjsTspan1232" dy="16" x="99.5"><tspan id="SvgjsTspan1233" style="text-decoration:;">的api</tspan></tspan></text></g></g><g id="SvgjsG1234"><path id="SvgjsPath1235" d="M245.5 533.7272720336914L245.5 573.763639831543" stroke="#323232" stroke-width="2" fill="none" marker-end="url(#SvgjsMarker1236)"></path></g><g id="SvgjsG1238"><path id="SvgjsPath1239" d="M94.59091186523438 533.0909194946289L94.59091186523438 570.0909194946289" stroke="#323232" stroke-width="2" fill="none" marker-end="url(#SvgjsMarker1240)"></path></g><g id="SvgjsG1242"><path id="SvgjsPath1243" d="M270.5909118652344 114L270.5909118652344 165" stroke="#323232" stroke-width="2" fill="none" marker-end="url(#SvgjsMarker1244)"></path></g></svg>